<?xml version="1.0" encoding="UTF-8" standalone="no"?>
<svg
   xmlns:dc="http://purl.org/dc/elements/1.1/"
   xmlns:cc="http://creativecommons.org/ns#"
   xmlns:rdf="http://www.w3.org/1999/02/22-rdf-syntax-ns#"
   xmlns:svg="http://www.w3.org/2000/svg"
   xmlns="http://www.w3.org/2000/svg"
   xmlns:sodipodi="http://sodipodi.sourceforge.net/DTD/sodipodi-0.dtd"
   xmlns:inkscape="http://www.inkscape.org/namespaces/inkscape"
   width="19.683775cm"
   height="19.707985cm"
   viewBox="842.6016 303.4219 2789.8313 2793.2508"
   version="1.0"
   id="svg43"
   sodipodi:docname="page-info-internal.svg"
   inkscape:version="0.92.4 (5da689c313, 2019-01-14)">
  <metadata
     id="metadata49">
    <rdf:RDF>
      <cc:Work
         rdf:about="">
        <dc:format>image/svg+xml</dc:format>
        <dc:type
           rdf:resource="http://purl.org/dc/dcmitype/StillImage" />
      </cc:Work>
    </rdf:RDF>
  </metadata>
  <defs
     id="defs47">
    <filter
       style="color-interpolation-filters:sRGB"
       inkscape:label="Greyscale"
       id="filter3860">
      <feColorMatrix
         values="0.26 0.72 -0.04 0 0 0.26 0.72 -0.04 0 0 0.26 0.72 -0.04 0 0 0 0 0 1 0 "
         id="feColorMatrix3858"
         result="fbSourceGraphic" />
      <feColorMatrix
         result="fbSourceGraphicAlpha"
         in="fbSourceGraphic"
         values="0 0 0 -1 0 0 0 0 -1 0 0 0 0 -1 0 0 0 0 1 0"
         id="feColorMatrix3862" />
      <feColorMatrix
         id="feColorMatrix3864"
         values="0.26 0.72 -0.04 0 0 0.26 0.72 -0.04 0 0 0.26 0.72 -0.04 0 0 0 0 0 1 0 "
         in="fbSourceGraphic" />
    </filter>
  </defs>
  <sodipodi:namedview
     pagecolor="#ffffff"
     bordercolor="#666666"
     borderopacity="1"
     objecttolerance="10"
     gridtolerance="10"
     guidetolerance="10"
     inkscape:pageopacity="0"
     inkscape:pageshadow="2"
     inkscape:window-width="1354"
     inkscape:window-height="678"
     id="namedview45"
     showgrid="false"
     inkscape:zoom="0.73408106"
     inkscape:cx="218.20267"
     inkscape:cy="428.1062"
     inkscape:window-x="0"
     inkscape:window-y="28"
     inkscape:window-maximized="0"
     inkscape:current-layer="svg43" />
  <desc
     id="desc2">
  Exported by the ArtWorks SVGExport module.
  Source document: ADFS::Pan.$.Public.Michael.NetSurf.SVN.trunk.art.logo.emblem.NetSurf
</desc>
  <g
     transform="matrix(1,0,0,-1,188.36093,3206.6654)"
     stroke-miterlimit="16"
     id="g41"
     style="clip-rule:evenodd;fill-rule:evenodd;stroke-linecap:butt;stroke-linejoin:bevel;stroke-miterlimit:16;filter:url(#filter3860)">
    <g
       id="g39">
      <defs
         id="defs9">
        <radialGradient
           id="_Fill0"
           gradientUnits="userSpaceOnUse"
           cx="1431.0469"
           cy="2198.4453"
           r="2142.9219"
           spreadMethod="pad">
          <stop
             offset="0"
             stop-color="#b8f5ff"
             id="stop4" />
          <stop
             offset="1"
             stop-color="#0097ff"
             id="stop6" />
        </radialGradient>
      </defs>
      <path
         d="m 886.7266,1509.0156 c 0,641.4688 519.8593,1161.461 1161.4453,1161.461 641.6953,0 1161.5859,-519.9922 1161.5859,-1161.461 0,-641.4218 -519.8906,-1161.4687 -1161.4375,-1161.4687 -641.7344,0 -1161.5937,520.0469 -1161.5937,1161.4687 z"
         id="path11"
         inkscape:connector-curvature="0"
         style="fill:url(#_Fill0);stroke:#000000;stroke-width:88.35160065" />
      <path
         d="m 2819.9219,1695.4375 -72.9375,202.0234 166.6172,100.2891 -194.5235,91.3906 46.8438,188.6016 -202.0235,-72.9453 -100.3203,166.6797 -91.3593,-194.5782 -188.625,46.8125 72.9687,-202 -166.6719,-100.3437 194.625,-91.3281 -46.8906,-188.6016 202.0234,72.9141 100.2969,-166.6485 91.3828,194.5703 z"
         id="path13"
         inkscape:connector-curvature="0"
         style="fill:#ffffff" />
      <path
         d="m 1527.625,2475.9219 -52.9297,-201.7656 -88.4531,17.6875 60.1328,219.4531 z"
         id="path15"
         inkscape:connector-curvature="0"
         style="fill:#000000" />
      <path
         d="m 1432.1094,2069.1016 -17.6797,-205.211 -81.2266,3.4219 17.711,215.8203 z"
         id="path17"
         inkscape:connector-curvature="0"
         style="fill:#000000" />
      <path
         d="m 1414.4297,1651.625 31.9453,-201.5781 -88.4062,-17.711 -24.7657,215.5547 z"
         id="path19"
         inkscape:connector-curvature="0"
         style="fill:#000000" />
      <path
         d="m 1495.8047,1244.8594 81.4062,-184.0235 -77.7812,-35.3203 -84.8438,197.7735 z"
         id="path21"
         inkscape:connector-curvature="0"
         style="fill:#000000" />
      <path
         d="m 1676.3594,873.3906 120.164,-162.8437 -70.7656,-56.5313 -123.6484,176.5547 z"
         id="path23"
         inkscape:connector-curvature="0"
         style="fill:#000000" />
      <path
         d="m 1927.3594,540.7344 152.2031,-155.5703 -84.8437,-42.4063 -130.836,144.5078 z"
         id="path25"
         inkscape:connector-curvature="0"
         style="fill:#000000" />
      <path
         d="m 1018.2656,1046.625 176.8907,-74.1953 -21.1329,-74.3203 -152.1484,46 z"
         id="path27"
         inkscape:connector-curvature="0"
         style="fill:#000000" />
      <path
         d="m 1396.7891,929.9219 212.2343,-14.1328 -3.4375,-88.4063 -219.3437,21.2656 z"
         id="path29"
         inkscape:connector-curvature="0"
         style="fill:#000000" />
      <path
         d="m 1817.8203,912.2109 208.6563,21.2657 10.6093,-84.8282 -215.7968,-21.2656 z"
         id="path31"
         inkscape:connector-curvature="0"
         style="fill:#000000" />
      <path
         d="m 2231.6641,965.0859 201.6328,49.7657 24.75,-84.9297 -208.6719,-49.4844 z"
         id="path33"
         inkscape:connector-curvature="0"
         style="fill:#000000" />
      <path
         d="m 2635.0625,1081.7656 187.3438,85.25 35.4062,-74.3593 -190.9531,-92.0391 z"
         id="path35"
         inkscape:connector-curvature="0"
         style="fill:#000000" />
      <path
         d="m 2992.4063,1279.6094 141.3593,142.0625 77.8203,-49.586 -162.7812,-159.2031 z"
         id="path37"
         inkscape:connector-curvature="0"
         style="fill:#000000" />
    </g>
  </g>
</svg>
