<?xml version="1.0" encoding="UTF-8" standalone="no"?>
<!-- Created with Inkscape (http://www.inkscape.org/) -->

<svg
   xmlns:dc="http://purl.org/dc/elements/1.1/"
   xmlns:cc="http://creativecommons.org/ns#"
   xmlns:rdf="http://www.w3.org/1999/02/22-rdf-syntax-ns#"
   xmlns:svg="http://www.w3.org/2000/svg"
   xmlns="http://www.w3.org/2000/svg"
   xmlns:sodipodi="http://sodipodi.sourceforge.net/DTD/sodipodi-0.dtd"
   xmlns:inkscape="http://www.inkscape.org/namespaces/inkscape"
   width="108mm"
   height="108mm"
   viewBox="0 0 108 108"
   version="1.1"
   id="svg8"
   inkscape:version="0.92.4 (5da689c313, 2019-01-14)"
   sodipodi:docname="page-info-local.svg">
  <defs
     id="defs2" />
  <sodipodi:namedview
     id="base"
     pagecolor="#ffffff"
     bordercolor="#666666"
     borderopacity="1.0"
     inkscape:pageopacity="0.0"
     inkscape:pageshadow="2"
     inkscape:zoom="0.35"
     inkscape:cx="-29.077615"
     inkscape:cy="563.77953"
     inkscape:document-units="mm"
     inkscape:current-layer="layer1"
     showgrid="false"
     inkscape:window-width="1366"
     inkscape:window-height="683"
     inkscape:window-x="0"
     inkscape:window-y="28"
     inkscape:window-maximized="1" />
  <metadata
     id="metadata5">
    <rdf:RDF>
      <cc:Work
         rdf:about="">
        <dc:format>image/svg+xml</dc:format>
        <dc:type
           rdf:resource="http://purl.org/dc/dcmitype/StillImage" />
        <dc:title />
      </cc:Work>
    </rdf:RDF>
  </metadata>
  <g
     inkscape:label="Layer 1"
     inkscape:groupmode="layer"
     id="layer1"
     transform="translate(1,-190)">
    <circle
       style="fill:none;fill-opacity:1;stroke:#000000;stroke-width:8;stroke-miterlimit:4;stroke-dasharray:none;stroke-dashoffset:0;stroke-opacity:1"
       id="path10"
       cx="53"
       cy="244"
       r="50" />
    <g
       aria-label="i"
       style="font-style:normal;font-variant:normal;font-weight:bold;font-stretch:normal;font-size:102.01290894px;line-height:125%;font-family:'Noto Serif';-inkscape-font-specification:'Noto Serif Bold';letter-spacing:0px;word-spacing:0px;fill:#000000;fill-opacity:1;stroke:none;stroke-width:0.53131729px;stroke-linecap:butt;stroke-linejoin:miter;stroke-opacity:1"
       id="text4522">
      <path
         d="m 53.612077,218.90481 q -3.672465,0 -6.222787,-1.73422 -2.44831,-1.83623 -2.44831,-5.61071 0,-3.87649 2.44831,-5.61071 2.550322,-1.73422 6.222787,-1.73422 3.570452,0 6.120775,1.73422 2.652335,1.73422 2.652335,5.61071 0,3.77448 -2.652335,5.61071 -2.550323,1.73422 -6.120775,1.73422 z m -15.709988,63.86008 v -5.40668 h 1.224155 q 1.530194,0 3.1624,-0.40805 1.73422,-0.51007 2.856362,-1.93825 1.224154,-1.42818 1.224154,-4.28454 v -31.01192 q 0,-2.75435 -1.224154,-4.08052 -1.224155,-1.32617 -2.958375,-1.73422 -1.632206,-0.40805 -3.060387,-0.40805 h -1.224155 v -5.40669 h 23.973034 v 42.6414 q 0,2.85636 1.122142,4.28454 1.224155,1.42818 2.958374,1.93825 1.734219,0.40805 3.1624,0.40805 h 1.224155 v 5.40668 z"
         style="font-style:normal;font-variant:normal;font-weight:bold;font-stretch:normal;font-size:102.01290894px;font-family:'Noto Serif';-inkscape-font-specification:'Noto Serif Bold';stroke-width:0.53131729px"
         id="path4524"
         inkscape:connector-curvature="0" />
    </g>
  </g>
</svg>
